<svg xmlns="http://www.w3.org/2000/svg" viewBox="0 0 256 256">
  <g stroke-miterlimit="10">
    <path fill="#ec0000" d="M127.86 254.3C58.13 254.3 1.4 197.59 1.4 127.87 1.4 58.13 58.13 1.4 127.86 1.4c69.72 0 126.45 56.72 126.45 126.45 0 69.72-56.73 126.45-126.45 126.45z"/>
    <path fill="#fff" d="M82.62 187.14a14.04 14.04 0 0 1-9.94-23.98l90.48-90.47a14.05 14.05 0 0 1 19.86 19.87l-90.46 90.47a14.02 14.02 0 0 1-9.94 4.11z"/>
    <path fill="#fff" d="M173.1 187.14a14 14 0 0 1-9.94-4.11L72.69 92.56a14.05 14.05 0 1 1 19.87-19.87l90.47 90.47a14.04 14.04 0 0 1-9.94 23.98z"/>
  </g>
</svg>
