<svg xmlns="http://www.w3.org/2000/svg" viewBox="0 0 32 32">
  <path fill="#f1f1f1" d="M3 20h.64q.32 1 .8 1.91l-.46.45a2 2 0 0 0-.51 1.93l5.94-5.94a7 7 0 0 1 8.93-8.93l5.94-5.94c-.67-.16-1.42 0-1.92.5l-.45.45A13 13 0 0 0 20 3.64V3a2 2 0 0 0-2-2h-4a2 2 0 0 0-2 2v.64q-1 .32-1.91.8l-.45-.46a2.05 2.05 0 0 0-2.83 0L3.98 6.81a2 2 0 0 0 0 2.83l.45.45A13 13 0 0 0 3.64 12H3a2 2 0 0 0-2 2v4c0 1.1.9 2 2 2m26-8h-.64a13 13 0 0 0-.8-1.91l.46-.45a2 2 0 0 0 .51-1.93 2 2 0 0 0-.51-.9l-.7-.71 3.39-3.4a1 1 0 1 0-1.42-1.4l-28 28a1 1 0 1 0 1.42 1.4l3.4-3.39.7.71q.39.39.91.5.5.12 1 0l.07-.02q.19-.05.36-.14l.1-.05q.21-.12.39-.29l.45-.45q.92.46 1.91.79V29c0 1.1.9 2 2 2h4a2 2 0 0 0 2-2v-.64q1-.32 1.91-.8l.46.46c.75.76 2.07.76 2.82 0l2.83-2.83a2 2 0 0 0 0-2.83l-.45-.45q.47-.92.79-1.91H29a2 2 0 0 0 2-2v-4a2 2 0 0 0-2-2M16 23q-.6 0-1.2-.1l-.12-.04a7 7 0 0 1-2.86-1.26l9.78-9.78a7 7 0 0 1 1.26 2.86l.03.12q.1.6.11 1.2a7 7 0 0 1-7 7"/>
</svg>
