<svg xmlns="http://www.w3.org/2000/svg" viewBox="0 0 32 32">
  <path fill="#f1f1f1" d="M10.25 4.23a1 1 0 0 0-1-1H3.92a1 1 0 0 0-.99 1v5.34a1 1 0 0 0 1 .99h5.34a1 1 0 0 0 .99-.99zm9.2 0a1 1 0 0 0-.99-1h-5.34a1 1 0 0 0-1 1v5.34a1 1 0 0 0 1 .99h5.34a1 1 0 0 0 1-.99zm9.42 0a1 1 0 0 0-1-1h-5.33a1 1 0 0 0-1 1v5.34a1 1 0 0 0 1 .99h5.34c.55 0 .99-.44.99-.99zm-18.62 8.99a1 1 0 0 0-1-.99H3.92a1 1 0 0 0-.99 1v5.34a1 1 0 0 0 1 .99h5.34a1 1 0 0 0 .99-1zm9.2 0a1 1 0 0 0-.99-.99h-5.34a1 1 0 0 0-1 1v5.34a1 1 0 0 0 1 .99h5.34a1 1 0 0 0 1-1zm9.42 0a1 1 0 0 0-1-.99h-5.33a1 1 0 0 0-1 1v5.34a1 1 0 0 0 1 .99h5.34a1 1 0 0 0 .99-1zm-18.62 9.21a1 1 0 0 0-1-.99H3.92a1 1 0 0 0-.99.99v5.34a1 1 0 0 0 1 1h5.34a1 1 0 0 0 .99-1zm9.2 0a1 1 0 0 0-.99-.99h-5.34a1 1 0 0 0-1 .99v5.34a1 1 0 0 0 1 1h5.34a1 1 0 0 0 1-1zm9.42 0a1 1 0 0 0-1-.99h-5.33a1 1 0 0 0-1 .99v5.34a1 1 0 0 0 1 1h5.34a1 1 0 0 0 .99-1z"/>
</svg>
