<svg xmlns="http://www.w3.org/2000/svg" viewBox="0 0 46 46">
	<path fill="#f1f1f1" d="M43.45 18.44h-2.43a18 18 0 0 0-2.08-4.93l1.75-1.76a2.5 2.5 0 0 0 0-3.54l-2.92-2.92a2.57 2.57 0 0 0-3.55 0L32.4 7.1q-2.23-1.31-4.87-1.97V2.52A2.5 2.5 0 0 0 25.04 0h-4.13a2.5 2.5 0 0 0-2.47 2.52v2.6a19 19 0 0 0-4.88 1.98l-1.82-1.8a2.57 2.57 0 0 0-3.55 0L5.27 8.2a2.5 2.5 0 0 0 0 3.54l1.75 1.76a18 18 0 0 0-2.08 4.93H2.5a2.5 2.5 0 0 0-2.5 2.5v4.12a2.47 2.47 0 0 0 2.5 2.47h2.44a18 18 0 0 0 2.08 4.94l-1.75 1.77a2.5 2.5 0 0 0 0 3.55l2.92 2.92a2.5 2.5 0 0 0 3.54 0l1.83-1.82q2.24 1.32 4.88 1.98v2.6c0 1.39 1.09 2.5 2.47 2.5h4.13a2.5 2.5 0 0 0 2.49-2.5v-2.6q2.64-.65 4.87-1.98l1.81 1.81a2.5 2.5 0 0 0 3.55 0l2.92-2.91a2.5 2.5 0 0 0 0-3.55l-1.75-1.77a18 18 0 0 0 2.08-4.94h2.44a2.5 2.5 0 0 0 2.52-2.47v-4.13a2.5 2.5 0 0 0-2.52-2.49zM22.98 30.85A7.9 7.9 0 0 1 15.05 23a7.9 7.9 0 0 1 7.93-7.85A7.9 7.9 0 0 1 30.9 23a7.9 7.9 0 0 1-7.93 7.85z"/>
</svg>
